<svg width="800" height="800" viewBox="0 0 800 800" fill="none" xmlns="http://www.w3.org/2000/svg"><path d="M399.997 566.665v-200" stroke="#fff" stroke-width="59.273" stroke-linecap="round"/><path d="M399.996 233.336c18.41 0 33.334 14.924 33.334 33.334 0 18.409-14.924 33.333-33.334 33.333-18.409 0-33.333-14.924-33.333-33.333 0-18.41 14.924-33.334 33.333-33.334z" fill="#fff"/><path d="M233.334 111.262C282.363 82.9 339.286 66.668 400.001 66.668c184.095 0 333.333 149.238 333.333 333.333 0 184.095-149.238 333.333-333.333 333.333-184.095 0-333.333-149.238-333.333-333.333 0-60.715 16.232-117.638 44.594-166.667" stroke="#fff" stroke-width="59.273" stroke-linecap="round"/></svg>