<svg width="800" height="800" viewBox="0 0 800 800" fill="none" xmlns="http://www.w3.org/2000/svg"><path d="M416.667 234.715A100.71 100.71 0 0 0 400 233.333c-55.228 0-100 44.771-100 100 0 55.228 44.772 100 100 100s100-44.772 100-100c0-5.679-.473-11.247-1.383-16.667" stroke="#fff" stroke-width="46.545" stroke-linecap="round"/><path d="M166.662 507.204c-21.582-55.13-33.333-113.825-33.333-169.093 0-149.914 119.391-271.443 266.667-271.443 147.276 0 266.666 121.529 266.666 271.443 0 148.739-85.11 322.303-217.902 384.371-30.956 14.469-66.573 14.469-97.529 0-42.411-19.823-79.958-51.019-111.423-89.148" stroke="#fff" stroke-width="46.545" stroke-linecap="round"/></svg>